<?xml version="1.0" encoding="UTF-8"?> <!-- Generator: Adobe Illustrator 25.4.1, SVG Export Plug-In . SVG Version: 6.00 Build 0) --> <svg xmlns="http://www.w3.org/2000/svg" xmlns:xlink="http://www.w3.org/1999/xlink" version="1.1" id="Layer_1" x="0px" y="0px" viewBox="0 0 20 20" style="enable-background:new 0 0 20 20;" xml:space="preserve"> <style type="text/css"> .st0{fill:#353535;} .st1{fill:#FFFFFF;} </style> <g> <g> <path class="st0" d="M12.4,6.8c-0.5,0-0.9,0.1-1.3,0.3v0c-1,0.5-1.2,0.5-2.2,0v0C8.5,6.9,8.1,6.8,7.6,6.8c-1.7,0-3.1,1.6-3.1,3.3 C4.5,13.9,7,16,10,16c3,0,5.5-2,5.5-5.9C15.5,8.4,14.1,6.8,12.4,6.8z"></path> <path class="st0" d="M9.3,4.3C9,4,8.4,3.9,7.8,3.9C7.2,3.9,6.8,4,6.8,4C6.7,4,6.7,4.1,6.7,4.2c0,0,0.3,1.1,1.2,1.9 C8.8,6.8,9.9,6.9,10,6.9c0,0,0,0,0,0c0.1,0,0.2-0.1,0.2-0.2C10.2,6.6,10.3,5.1,9.3,4.3z"></path> <path class="st1" d="M7.3,9.5c-0.4,0.3-0.9,0.3-1.2,0C5.8,9.2,6,8.6,6.4,8.3C6.8,8,7.3,8,7.6,8.3C7.8,8.7,7.7,9.2,7.3,9.5z"></path> </g> <g> <path class="st0" d="M10,20C4.5,20,0,15.5,0,10C0,4.5,4.5,0,10,0s10,4.5,10,10C20,15.5,15.5,20,10,20z M10,1.1 c-4.9,0-8.9,4-8.9,8.9c0,4.9,4,8.9,8.9,8.9s8.9-4,8.9-8.9C18.9,5.1,14.9,1.1,10,1.1z"></path> </g> </g> </svg> 