<?xml version="1.0" encoding="UTF-8"?> <svg xmlns="http://www.w3.org/2000/svg" id="Layer_1" data-name="Layer 1" viewBox="0 0 146.07 37.94" width="146.07" height="37.94"><title>Artboard 14</title><polygon points="35.35 37.36 44.6 10.75 51.68 10.75 42.37 37.36 35.35 37.36" fill="#6b2c90"></polygon><path d="M107.83,24.23v-.1c0-3.45-2.38-5.93-5.4-5.93s-5.35,2.48-5.35,5.93v.1c0,3.5,2.38,6,5.35,6s5.4-2.43,5.4-6M97.27,34.15v3.21H88V0h9.24V14.55c1.8-2.19,4-4.08,8-4.08,6.27,0,11.67,5.2,11.67,13.62v.1c0,8.56-5.4,13.76-11.62,13.76a9.88,9.88,0,0,1-8-3.79" fill="#14276f"></path><path d="M137.42,22c-.34-2.92-2-4.77-4.57-4.77s-4.08,1.9-4.57,4.77Zm-17.9,2.29v-.1c0-7.68,5.5-13.76,13.28-13.76,9.09,0,13.28,6.66,13.28,14.4,0,.58,0,1.26,0,1.9H128.42a5.43,5.43,0,0,0,5.69,4.33,7.94,7.94,0,0,0,5.84-2.67l5.11,4.23A13.78,13.78,0,0,1,133.62,38c-8.27,0-14.1-5.5-14.1-13.67" fill="#14276f"></path><polygon points="76.53 10.75 72.96 24.18 68.87 10.75 61.24 10.75 57.2 24.08 53.75 10.73 52.89 10.73 48.5 23.41 52.73 37.36 60.65 37.36 65.03 23.69 69.31 37.36 77.29 37.36 85.43 10.75 76.53 10.75" fill="#14276f"></polygon><path d="M34.17,37.36l.14-.41,7.39-21.3c-1.29-3.34-4.19-5.19-8.24-5.19a11.06,11.06,0,0,0-8.8,4.28,8.07,8.07,0,0,0-7.59-4.28,9.66,9.66,0,0,0-7.83,4.18V10.73H0V37.36H9.24V23.06c0-2.87,1.56-4.38,3.74-4.38s3.6,1.51,3.6,4.38v14.3h9.24V23.06c0-2.87,1.61-4.38,3.79-4.38s3.6,1.51,3.6,4.38v14.3Z" fill="#14276f"></path><rect y="0.02" width="85.3" height="7.94" fill="#007db6"></rect><polygon points="2.86 1.31 4.21 1.31 6.36 4.08 6.36 1.31 7.8 1.31 7.8 6.54 6.53 6.54 4.29 3.67 4.29 6.54 2.86 6.54 2.86 1.31" fill="#fff"></polygon><polygon points="10.15 1.31 14.35 1.31 14.35 2.55 11.58 2.55 11.58 3.34 14.09 3.34 14.09 4.48 11.58 4.48 11.58 5.31 14.39 5.31 14.39 6.54 10.15 6.54 10.15 1.31" fill="#fff"></polygon><polygon points="16.2 1.31 17.73 1.31 18.64 4.34 19.65 1.3 20.9 1.3 21.91 4.34 22.82 1.31 24.32 1.31 22.57 6.58 21.31 6.58 20.25 3.57 19.21 6.58 17.95 6.58 16.2 1.31" fill="#fff"></polygon><polygon points="31.32 4.58 29.33 1.31 30.98 1.31 32.05 3.22 33.14 1.31 34.76 1.31 32.77 4.56 32.77 6.54 31.32 6.54 31.32 4.58" fill="#fff"></polygon><path d="M40.12,3.94h0a1.36,1.36,0,0,0-1.34-1.41,1.33,1.33,0,0,0-1.32,1.4v0a1.36,1.36,0,0,0,1.34,1.41,1.33,1.33,0,0,0,1.33-1.4M36,3.94h0a2.82,2.82,0,0,1,5.63,0v0a2.82,2.82,0,0,1-5.63,0" fill="#fff"></path><path d="M46.18,3.82c.49,0,.78-.24.78-.62h0c0-.41-.3-.62-.78-.62h-.95V3.82Zm-2.4-2.51h2.47a2.29,2.29,0,0,1,1.7.57,1.62,1.62,0,0,1,.46,1.22v0a1.65,1.65,0,0,1-1.08,1.61l1.25,1.82H46.91L45.86,5h-.63V6.54H43.77Z" fill="#fff"></path><polygon points="50.56 1.31 52.02 1.31 52.02 3.44 53.81 1.31 55.53 1.31 53.55 3.56 55.6 6.54 53.86 6.54 52.55 4.6 52.02 5.19 52.02 6.54 50.56 6.54 50.56 1.31" fill="#fff"></polygon><path d="M60.75,3.94h0a2.69,2.69,0,0,1,2.76-2.72A2.56,2.56,0,0,1,65.72,2.3l-1.09.84a1.4,1.4,0,0,0-1.14-.61,1.29,1.29,0,0,0-1.25,1.38v0a1.29,1.29,0,0,0,1.25,1.4,1.42,1.42,0,0,0,1.18-.64l1.09.78a2.75,2.75,0,0,1-5-1.52" fill="#fff"></path><rect x="67.83" y="1.31" width="1.46" height="5.23" fill="#fff"></rect><polygon points="72.94 2.58 71.38 2.58 71.38 1.31 75.96 1.31 75.96 2.58 74.39 2.58 74.39 6.54 72.94 6.54 72.94 2.58" fill="#fff"></polygon><polygon points="79.53 4.58 77.54 1.31 79.19 1.31 80.27 3.22 81.35 1.31 82.97 1.31 80.98 4.56 80.98 6.54 79.53 6.54 79.53 4.58" fill="#fff"></polygon></svg> 