<?xml version="1.0" encoding="UTF-8"?> <!-- Generator: Adobe Illustrator 25.4.1, SVG Export Plug-In . SVG Version: 6.00 Build 0) --> <svg xmlns="http://www.w3.org/2000/svg" xmlns:xlink="http://www.w3.org/1999/xlink" version="1.1" id="Layer_1" x="0px" y="0px" viewBox="0 0 20 20" style="enable-background:new 0 0 20 20;" xml:space="preserve"> <style type="text/css"> .st0{fill-rule:evenodd;clip-rule:evenodd;fill:#3A3A3A;} </style> <path class="st0" d="M10,0C4.5,0,0,4.5,0,10s4.5,10,10,10s10-4.5,10-10l0,0C20,4.5,15.5,0,10,0z M10,18.9c-2.2,0-4.3-0.8-5.9-2.2 l2.1-2.1V13l-2.9,2.9C0.1,12.3,0.3,6.6,4,3.3c3.4-3.1,8.5-3.1,11.9,0L13,6.2l0.3,0.3c0.2,0.2,0.3,0.4,0.4,0.6l3-3 c3.3,3.7,2.9,9.3-0.8,12.6C14.2,18.1,12.2,18.9,10,18.9z M12.8,7l-1.5-1.5l0,0V4.6l0,0c0.3,0,0.5-0.2,0.5-0.5s-0.2-0.5-0.5-0.5H8.7 c-0.3,0-0.5,0.2-0.5,0.5l0,0c0,0.3,0.2,0.5,0.5,0.5h0.1v0.9L7.2,7l0,0C7.1,7.2,7,7.4,7,7.7v7.8c0,0.5,0.4,0.9,0.9,0.9h4.3 c0.5,0,0.9-0.4,0.9-0.9V7.7C13.1,7.4,13,7.2,12.8,7z M9.2,7.5C8.9,7.7,8.5,7.7,8.3,7.4C8.1,7.1,8.1,6.8,8.4,6.5c0,0,0,0,0,0 c0.2-0.2,0.5-0.2,0.8,0C9.4,6.8,9.4,7.3,9.2,7.5L9.2,7.5z"></path> </svg> 