<?xml version="1.0" encoding="UTF-8"?> <!-- Generator: Adobe Illustrator 25.4.1, SVG Export Plug-In . SVG Version: 6.00 Build 0) --> <svg xmlns="http://www.w3.org/2000/svg" xmlns:xlink="http://www.w3.org/1999/xlink" version="1.1" id="Layer_1" x="0px" y="0px" viewBox="0 0 20 20" style="enable-background:new 0 0 20 20;" xml:space="preserve"> <style type="text/css"> .st0{fill-rule:evenodd;clip-rule:evenodd;fill:#3A3A3A;} </style> <path class="st0" d="M10,0C4.5,0,0,4.5,0,10s4.5,10,10,10s10-4.5,10-10l0,0C20,4.5,15.5,0,10,0z M10,18.9c-2.2,0-4.3-0.8-5.9-2.2 l2.2-2.2c-0.2-0.3-0.4-0.6-0.6-1l-2.3,2.4C0.2,12.2,0.6,6.5,4.3,3.3c3.3-2.9,8.3-2.9,11.6,0l-2.6,2.5c0.2,0.3,0.4,0.7,0.5,1l2.8-2.8 c3.3,3.7,2.9,9.3-0.8,12.6C14.3,18.1,12.2,18.9,10,18.9z M10,4.3c-1.9,0-4,3-4,6.9c0,1.1,0.3,2.1,1,3c0.7,0.9,1.8,1.4,3,1.4 c2.3-0.1,4.1-2,4-4.2v-0.1C14.1,6.8,11.7,4.3,10,4.3z M9.7,7C9.5,7.4,9,7.5,8.7,7.3C8.3,7,8.2,6.6,8.4,6.2c0-0.1,0.1-0.2,0.2-0.2 c0.2-0.3,0.6-0.3,0.9-0.2C9.9,6.1,9.9,6.6,9.7,7z"></path> </svg> 