<?xml version="1.0" encoding="UTF-8"?> <!-- Generator: Adobe Illustrator 25.4.1, SVG Export Plug-In . SVG Version: 6.00 Build 0) --> <svg xmlns="http://www.w3.org/2000/svg" xmlns:xlink="http://www.w3.org/1999/xlink" version="1.1" id="Layer_1" x="0px" y="0px" viewBox="0 0 20 20" style="enable-background:new 0 0 20 20;" xml:space="preserve"> <style type="text/css"> .st0{fill:#353535;} .st1{fill:#FFFFFF;} </style> <g> <g> <g> <path class="st0" d="M10.7,9c0,0.2-0.2,0.4-0.3,0.5c0,0.2,0,0.3,0,0.3c0.1,0,0.1,0,0.2,0c0.1,0,0.2,0,0.3,0L13,7.8 c0.1-0.6,0-1,0-1.1c-0.2,0-0.4,0.1-0.6,0.2l-1.6,1.6C10.8,8.8,10.7,9,10.7,9z"></path> <path class="st0" d="M9.1,10.1l-1.5,1.5c0,0,0,0.1,0.1,0.1c0.2,0.2,0.5,0.4,0.8,0.5L9.7,11C9.6,10.7,9.4,10.4,9.1,10.1z"></path> <path class="st0" d="M6.6,12.6l-0.5,0.5c0,0.3,0.1,0.8,0.3,1.2L7.8,13C7.4,12.8,7,12.7,6.6,12.6z"></path> <path class="st0" d="M10,0C4.5,0,0,4.5,0,10c0,5.5,4.5,10,10,10c5.5,0,10-4.5,10-10C20,4.5,15.5,0,10,0z M10,18.9 c-2.3,0-4.3-0.8-5.9-2.2L5.7,15c-0.2-0.4-0.3-0.8-0.4-1.1l-2,2c-1.4-1.6-2.2-3.6-2.2-5.9c0-4.9,4-8.9,8.9-8.9 c2.3,0,4.3,0.8,5.9,2.2l-2.5,2.5c0.1,0,0.1,0.1,0.2,0.1c0.2,0.1,0.3,0.4,0.4,0.6c0,0,0,0.1,0,0.3l2.7-2.7 c1.4,1.6,2.2,3.6,2.2,5.9C18.9,14.9,14.9,18.9,10,18.9z"></path> </g> <path class="st0" d="M14,13.6c0,0,0-0.1-0.1-0.1c0,0-0.1,0-0.1,0c-3.9,0.4-3.6,3.8-3.6,3.8c0,0.1,0.1,0.2,0.2,0.2 c0.2,0,0.4,0,0.6,0c0.9,0,1.6-0.3,2.2-0.9C14.1,15.5,14,13.6,14,13.6z"></path> </g> <path class="st0" d="M6.1,12.4c0,0-0.1,0-0.1,0c0,0-0.1,0.1-0.1,0.1c0,0.1,0,1.8,1,2.9c0.5,0.5,1.2,0.8,2,0.8c0,0,0,0,0,0 c0.2,0,0.5,0,0.8-0.1c0.1,0,0.1-0.1,0.2-0.2C9.9,16,10,12.7,6.1,12.4z"></path> <path class="st0" d="M6.9,9c0,0-0.1,0-0.1,0c0,0-0.1,0.1-0.1,0.1c0,0.1-0.1,1.6,0.8,2.6c0.5,0.5,1.1,0.7,1.9,0.7c0,0,0,0,0,0 c0.2,0,0.4,0,0.6,0c0.1,0,0.1-0.1,0.2-0.2C10.1,12.3,10.3,9.4,6.9,9z"></path> <path class="st0" d="M10.3,13.5c0,0.1,0.1,0.1,0.2,0.2c0.1,0,0.2,0,0.3,0c0.9,0,1.5-0.3,2-0.8c0.9-1,0.7-2.7,0.7-2.7 c0,0,0-0.1-0.1-0.1c0,0-0.1,0-0.1,0C10,10.5,10.3,13.4,10.3,13.5z"></path> <path class="st0" d="M9.8,9C9.8,9,9.8,9,9.8,9c0,0,0.1,0,0.1,0C9.9,9,10,9,10,8.9c0,0,0.5-2.8-2.7-3.4c0,0-0.1,0-0.1,0 c0,0-0.1,0.1-0.1,0.1c0,0.1-0.3,1.6,0.6,2.6C8.2,8.8,8.9,9,9.8,9z"></path> <path class="st0" d="M10.3,9.9c0,0.1,0.1,0.1,0.2,0.1c0.1,0,0.1,0,0.2,0c0.9,0,1.5-0.3,2-0.8c0.8-1,0.6-2.5,0.6-2.6 c0,0,0-0.1-0.1-0.1c0,0-0.1,0-0.1,0C9.8,7.1,10.3,9.9,10.3,9.9z"></path> <path class="st0" d="M10.4,6.9c0,0,0.1,0,0.1,0c0,0,0.1,0,0.1,0c0,0,1.1-0.9,1.1-2.1c0-1.2-1-2.1-1-2.2c-0.1-0.1-0.2-0.1-0.2,0 c0,0-1.1,0.9-1.1,2.1C9.3,5.9,10.3,6.9,10.4,6.9z"></path> <path class="st1" d="M10.9,4.1c-0.1,0.3-0.3,0.6-0.6,0.5C10,4.6,9.9,4.3,9.9,3.9c0.1-0.3,0.3-0.6,0.6-0.5 C10.8,3.5,10.9,3.8,10.9,4.1z"></path> <path class="st1" d="M8.3,6.4C8.4,6.6,8.4,6.9,8.2,7C8,7.2,7.7,7,7.6,6.8C7.4,6.5,7.5,6.2,7.7,6.1C7.9,6,8.2,6.1,8.3,6.4z"></path> </g> </svg> 