<?xml version="1.0" encoding="UTF-8"?> <!-- Generator: Adobe Illustrator 25.4.1, SVG Export Plug-In . SVG Version: 6.00 Build 0) --> <svg xmlns="http://www.w3.org/2000/svg" xmlns:xlink="http://www.w3.org/1999/xlink" version="1.1" id="Layer_1" x="0px" y="0px" viewBox="0 0 20 20" style="enable-background:new 0 0 20 20;" xml:space="preserve"> <style type="text/css"> .st0{fill-rule:evenodd;clip-rule:evenodd;fill:#3A3A3A;} </style> <path class="st0" d="M10,0C4.5,0,0,4.5,0,10s4.5,10,10,10s10-4.5,10-10l0,0C20,4.5,15.5,0,10,0z M10,18.9c-2.2,0-4.3-0.8-5.9-2.2 l4-4c-0.1-0.4-0.2-0.8-0.4-1.1l-4.3,4.3C0.2,12.2,0.6,6.5,4.3,3.3c3.3-2.9,8.3-2.9,11.6,0l-3.9,4c0.1,0.4,0.2,0.8,0.4,1.1l4.3-4.3 c3.3,3.7,2.9,9.3-0.8,12.6C14.3,18.1,12.2,18.9,10,18.9z M13.7,10.6L13.7,10.6c-2-1.5-2.2-1.8-2.7-4.2l0,0l0,0 C10.4,4.8,8.7,4,7.2,4.6c-1.3,0.5-2.1,1.7-2,3C5.3,8.3,5.7,9,6.3,9.4l0,0c2,1.5,2.2,1.8,2.7,4.2h0c0.2,1.6,1.7,2.8,3.3,2.6 c1.6-0.2,2.8-1.7,2.6-3.3c0-0.2-0.1-0.4-0.1-0.6C14.7,11.6,14.3,11,13.7,10.6L13.7,10.6z M7,6.3c0,0.3-0.3,0.6-0.6,0.6 C6,6.9,5.8,6.6,5.8,6.3c0-0.1,0-0.2,0.1-0.3c0-0.3,0.3-0.6,0.6-0.6c0,0,0,0,0,0c0.3,0,0.6,0.3,0.6,0.6C7.1,6.1,7,6.2,7,6.3z M7.3,5.2c-0.1-0.3,0-0.6,0.3-0.7s0.6,0,0.7,0.3C8.4,5,8.3,5.3,8,5.5C7.8,5.6,7.4,5.4,7.3,5.2z M8.2,6.7C8,6.8,7.8,6.8,7.7,6.6 c-0.1-0.2,0-0.4,0.1-0.5l0,0C8,6,8.2,6.1,8.3,6.2c0,0,0,0,0,0l0,0C8.4,6.4,8.4,6.6,8.2,6.7L8.2,6.7z"></path> </svg> 