<?xml version="1.0" encoding="utf-8"?>
<!-- Generator: Adobe Illustrator 27.5.0, SVG Export Plug-In . SVG Version: 6.00 Build 0)  -->
<svg version="1.1" id="Layer_1" xmlns="http://www.w3.org/2000/svg" xmlns:xlink="http://www.w3.org/1999/xlink" x="0px" y="0px"
	 viewBox="0 0 310.6 102.1" style="enable-background:new 0 0 310.6 102.1;" xml:space="preserve">
<style type="text/css">
	.st0{fill:#FFFFFF;}
</style>
<path class="st0" d="M0,65l3.6-0.6V36.2L0,35.6v-0.8h14.9c2.8,0,5.4,0.6,7.6,1.9s3.9,3.1,5.2,5.4c1.2,2.3,1.9,5.1,1.9,8.2
	s-0.6,5.8-1.9,8.2s-3,4.2-5.2,5.4c-2.2,1.3-4.8,1.9-7.6,1.9H0V65L0,65z M14.9,64.9c1.9,0,3.6-0.4,5-1.3c1.5-0.9,2.6-2.2,3.4-3.9
	s1.2-3.9,1.2-6.3v-6c0-2.5-0.4-4.6-1.2-6.3c-0.8-1.7-2-3-3.4-3.9c-1.5-0.9-3.1-1.3-5-1.3h-7v29.2L14.9,64.9L14.9,64.9z"/>
<path class="st0" d="M36.1,64.9c-1.5-0.9-2.8-2.1-3.7-3.7c-0.9-1.6-1.4-3.4-1.4-5.5s0.5-3.9,1.3-5.5s2.1-2.8,3.6-3.7
	c1.5-0.9,3.2-1.3,5.1-1.3c1.6,0,3.1,0.4,4.4,1.1c1.3,0.7,2.3,1.7,3,3c0.7,1.3,1.1,2.8,1.1,4.4H35.3v3.8c0,2.3,0.5,4.1,1.5,5.5
	c1,1.4,2.5,2.1,4.5,2.1c1.8,0,3.4-0.5,4.7-1.5s2.2-2.3,2.5-3.9h0.9c-0.4,1.9-1.3,3.4-2.8,4.6c-1.5,1.1-3.3,1.7-5.4,1.7
	C39.4,66.2,37.7,65.8,36.1,64.9z M45.4,52.9c0-2.2-0.3-3.9-1-5s-1.8-1.7-3.3-1.7c-1.7,0-3.1,0.6-4,1.8s-1.5,2.8-1.6,4.8H45.4z"/>
<path class="st0" d="M60.4,65.1c-1.1-0.8-2-1.9-2.6-3.2v4h-6.6v-0.8l2.7-0.4V35.9l-2.7-0.4v-0.8h6.6v15c0.7-1.4,1.5-2.5,2.6-3.2
	s2.4-1.2,3.9-1.2c1.8,0,3.5,0.4,4.8,1.3c1.4,0.8,2.5,2.1,3.3,3.6c0.8,1.6,1.2,3.4,1.2,5.5s-0.4,3.9-1.2,5.5s-1.9,2.8-3.3,3.7
	s-3,1.3-4.8,1.3C62.8,66.2,61.5,65.9,60.4,65.1L60.4,65.1z M69.4,57.7v-3.9c0-5-1.8-7.5-5.4-7.5c-1.1,0-2.2,0.3-3.1,1
	c-0.9,0.7-1.7,1.5-2.2,2.6s-0.8,2.3-0.8,3.6v4.2c0,1.3,0.3,2.6,0.8,3.7c0.5,1.2,1.3,2.1,2.2,2.8c0.9,0.7,2,1,3.2,1
	C67.6,65.3,69.4,62.8,69.4,57.7L69.4,57.7z"/>
<path class="st0" d="M80.8,64.9c-1.5-0.9-2.7-2.1-3.6-3.7s-1.3-3.4-1.3-5.5s0.4-3.9,1.3-5.4c0.9-1.6,2.1-2.8,3.6-3.7
	s3.2-1.3,5.1-1.3s3.6,0.4,5.1,1.3s2.7,2.1,3.6,3.7c0.9,1.6,1.3,3.4,1.3,5.4s-0.4,3.9-1.3,5.5c-0.9,1.6-2.1,2.8-3.6,3.7
	c-1.5,0.9-3.2,1.3-5.1,1.3S82.3,65.8,80.8,64.9z M90.2,63.3c1-1.4,1.5-3.2,1.5-5.5v-3.9c0-2.3-0.5-4.2-1.5-5.5s-2.4-2.1-4.3-2.1
	s-3.4,0.7-4.3,2.1s-1.5,3.2-1.5,5.5v3.9c0,2.3,0.5,4.2,1.5,5.5s2.4,2.1,4.3,2.1S89.2,64.7,90.2,63.3z"/>
<path class="st0" d="M97.1,65.1l2.7-0.4V46.9l-2.7-0.4v-0.8h6.6v3c1.6-2.2,3.5-3.3,5.5-3.3c1,0,1.8,0.2,2.6,0.8
	c0.8,0.5,1.1,1.2,1.1,2.2c0,0.7-0.2,1.2-0.7,1.7c-0.4,0.5-1,0.7-1.8,0.7c-0.8,0-1.5-0.3-2-1c0.3-0.4,0.4-0.8,0.4-1.2
	c0-0.4-0.2-0.8-0.4-1.1c-0.3-0.3-0.7-0.4-1.2-0.4c-0.5,0-1.1,0.2-1.7,0.8c-0.6,0.5-1.2,1.3-1.9,2.3v14.5l3.1,0.4v0.8h-9.7V65.1
	L97.1,65.1z"/>
<path class="st0" d="M115.8,64.9c-1.1-0.9-1.6-2.2-1.6-3.9c0-2.4,1-4.2,3.1-5.2c2-1,4.4-1.5,7.1-1.5h2.6v-3c0-1.3-0.2-2.4-0.4-3.1
	c-0.3-0.7-0.8-1.3-1.4-1.5s-1.5-0.5-2.5-0.5c-1.2,0-2.1,0.2-2.7,0.7s-0.9,1.1-0.9,1.9c0,0.8,0.4,1.2,1.1,1.5c0,0.7-0.2,1.2-0.7,1.7
	c-0.5,0.5-1.1,0.7-1.8,0.7c-0.7,0-1.3-0.2-1.8-0.6c-0.4-0.4-0.7-1-0.7-1.8c0-1.5,0.8-2.7,2.2-3.6c1.5-0.9,3.4-1.4,5.6-1.4
	c5.2,0,7.8,2.2,7.8,6.8v11.1c0,0.6,0.1,1,0.4,1.3s0.6,0.4,1.1,0.4c0.4,0,0.8-0.2,1.1-0.4s0.4-0.7,0.4-1.2h0.8c0,0.9-0.3,1.6-0.9,2.1
	s-1.4,0.8-2.4,0.8c-1.2,0-2.2-0.3-3-1S127,63.5,127,62c-0.6,1.3-1.6,2.4-2.8,3.1s-2.7,1.1-4.2,1.1C118.2,66.3,116.9,65.9,115.8,64.9
	L115.8,64.9z M124.2,63.9c0.7-0.4,1.4-1,1.9-1.8s0.8-1.7,0.9-2.8v-4h-2.6c-2.1,0-3.7,0.5-4.8,1.4c-1.1,1-1.6,2.3-1.6,4
	c0,1.4,0.3,2.4,1,3c0.7,0.6,1.7,0.9,2.9,0.9C122.7,64.5,123.4,64.3,124.2,63.9z"/>
<path class="st0" d="M134.5,65.1l2.7-0.4V35.9l-2.7-0.4v-0.8h6.6v15.1c1-1.4,2.1-2.5,3.4-3.3c1.3-0.8,2.7-1.2,4.2-1.2
	c1.9,0,3.3,0.5,4.4,1.4c1.1,0.9,1.6,2.3,1.6,4.2v13.8l2.7,0.4v0.8h-8.9v-0.8l2.3-0.4V51c0-1.3-0.3-2.4-0.8-3.1s-1.4-1.1-2.5-1.1
	s-2.3,0.4-3.4,1.3s-2.1,1.9-2.9,3.2v13.4l2.3,0.4v0.8h-8.9L134.5,65.1L134.5,65.1z"/>
<path class="st0" d="M220.8,66.2l-11.6-30.1v27.3L213,65v0.8h-8.3V65l3.6-1.5V36.2l-3.6-0.5v-0.8h8.6l9.8,24.9l9.9-24.9h7.9v0.8
	l-3.6,0.5v28.3l3.6,0.6v0.8h-11.4V65l3.6-0.6V37.3l-11.5,28.9L220.8,66.2L220.8,66.2z"/>
<path class="st0" d="M242.7,65.8v-0.8l2.7-0.4V46.9l-2.7-0.4v-0.8h6.6v18.9l2.7,0.4v0.8L242.7,65.8L242.7,65.8z M245,40.5
	c-0.5-0.5-0.8-1.1-0.8-1.8s0.2-1.3,0.8-1.8s1.1-0.7,1.9-0.7c0.7,0,1.3,0.2,1.8,0.7s0.7,1.1,0.7,1.8s-0.2,1.3-0.7,1.8
	s-1.1,0.8-1.8,0.8S245.5,41,245,40.5z"/>
<path class="st0" d="M252.9,65.8v-0.8l2.9-0.4V35.9l-2.9-0.4v-0.8h6.8v29.9l2.7,0.4v0.8L252.9,65.8L252.9,65.8z"/>
<path class="st0" d="M263.2,65.8v-0.8l2.9-0.4V35.9l-2.9-0.4v-0.8h6.8v29.9l2.7,0.4v0.8L263.2,65.8L263.2,65.8z"/>
<path class="st0" d="M279.5,64.9c-1.5-0.9-2.8-2.1-3.7-3.7c-0.9-1.6-1.4-3.4-1.4-5.5s0.5-3.9,1.3-5.5c0.9-1.6,2.1-2.8,3.6-3.7
	c1.5-0.9,3.2-1.3,5.1-1.3c1.6,0,3.1,0.4,4.4,1.1c1.3,0.7,2.3,1.7,3,3c0.7,1.3,1.1,2.8,1.1,4.4h-14.3v3.8c0,2.3,0.5,4.1,1.5,5.5
	c1,1.4,2.5,2.1,4.5,2.1c1.8,0,3.4-0.5,4.7-1.5s2.2-2.3,2.5-3.9h0.9c-0.4,1.9-1.3,3.4-2.8,4.6c-1.5,1.1-3.3,1.7-5.4,1.7
	C282.7,66.2,281,65.8,279.5,64.9z M288.7,52.9c0-2.2-0.4-3.9-1-5s-1.8-1.7-3.3-1.7c-1.7,0-3.1,0.6-4,1.8c-1,1.2-1.5,2.8-1.6,4.8
	H288.7z"/>
<path class="st0" d="M294.8,65.1l2.7-0.4V46.9l-2.7-0.4v-0.8h6.6v3c1.6-2.2,3.5-3.3,5.5-3.3c1,0,1.9,0.2,2.6,0.8
	c0.8,0.5,1.1,1.2,1.1,2.2c0,0.7-0.2,1.2-0.7,1.7c-0.4,0.5-1,0.7-1.8,0.7c-0.8,0-1.5-0.3-2-1c0.3-0.4,0.4-0.8,0.4-1.2
	c0-0.4-0.1-0.8-0.5-1.1c-0.3-0.3-0.7-0.4-1.2-0.4c-0.5,0-1.1,0.2-1.7,0.8c-0.6,0.5-1.2,1.3-1.9,2.3v14.5l3.1,0.4v0.8h-9.7V65.1
	L294.8,65.1z"/>
<path class="st0" d="M213.6,16.4c-0.3-0.3-0.7-0.6-1-0.8c-1.2-0.8-2.6-1.4-4.1-1.8c-1.7-0.4-3.4-0.6-5.2-0.4
	c-2.8,0.2-5.3,1.2-7.6,2.4c-0.4,0.2-0.6,0.5-1,0.7c-1.4,1.2-2.5,2.5-3,4.2c-0.3,0.9-0.5,1.8-0.6,2.7c-0.2,1.3-0.3,2.7-0.5,4
	c-0.2,1.1-0.6,2.1-1,3.2c-0.9,2-2.2,4-3.5,5.8c-1.2,1.9-2.5,3.8-3.7,5.7c-0.2,0.4-0.5,0.8-0.7,1.2c0-0.2,0-0.4,0-0.6
	c0.1-2.5,0.3-5.1,0.6-7.6c0.3-2.2,0.7-4.4,1.4-6.4c0.5-1.5,1-3,1.8-4.3c0.6-1,1.2-2,1.9-2.9c1.5-2.3,2.7-4.8,3.2-7.7
	c0.3-1.8,0.4-3.6,0-5.4c-0.6-2.8-1.9-5-3.9-6.5c-1.5-1.1-3.2-1.7-5-1.9c-2.2-0.2-4.4,0.1-6.5,1.4c-2.7,1.7-4.4,4.4-4.8,8.2
	c-0.2,2.1,0.1,4.2,0.7,6.2c0.6,2,1.4,3.7,2.5,5.3c0.5,0.8,1,1.5,1.5,2.2c1.4,2.2,2.3,4.7,3,7.4c0.4,1.8,0.8,3.6,1,5.5
	c0.2,1.9,0.4,3.8,0.5,5.7c0,0.5,0,0.9,0,1.3c-0.2-0.4-0.4-0.8-0.7-1.2c-1.2-1.9-2.4-3.8-3.7-5.7c-1.3-1.9-2.5-3.8-3.5-5.9
	c-0.5-1-0.9-2.1-1-3.2c-0.2-1.3-0.3-2.7-0.5-4c-0.1-0.9-0.4-1.8-0.6-2.7c-0.5-1.7-1.6-3-3-4.2c-0.3-0.3-0.6-0.5-1-0.7
	c-2.3-1.3-4.9-2.2-7.6-2.4c-1.8-0.2-3.5,0-5.2,0.4c-1.5,0.4-2.8,1-4.1,1.8c-0.4,0.2-0.7,0.5-1,0.8c-0.3,0.3-0.2,0.5,0.1,0.8
	c0.2,0.2,0.5,0.4,0.8,0.5c3.1,1.7,6.1,3.5,9,5.4c3.8,2.5,7.4,5.1,10.6,8.1c2.6,2.4,4.9,4.9,6.9,7.7c1.3,1.8,2.4,3.6,3.3,5.5
	c-6.3,1.1-11.1,6.6-11.1,13.2c0,2.6,0.7,5.4,2.3,7.5c1.7,2.2,3.6,4.2,5.7,5.9c1.1,0.9,2.1,1.7,3.3,2.4c0.6,0.4,1.1,0.7,1.7,1.1
	c0.4,0.3,1.2,0.5,1.4,1c0.6,1.4-7,1.9-4,3.8c1.1,0.7,2.2,1.7,2.7,2.9c0.9,1.9,0.5,4.2-0.2,6.1c-0.3,0.7-0.6,1.4-1,2.2
	c-0.5,1-1,1.9-1.3,3c-0.3,1.1-0.5,2.2-0.5,3.3c0,0.2,0,0.4,0,0.6c0.2,1.6,0.9,3,1.9,4.2c0.3,0.3,0.8,0.8,0.5,0.1
	c-0.3-1-0.8-1.9-1.1-2.9c-0.3-1-0.4-2-0.1-3.2c0.2-1,0.7-2,1.2-2.9c0.3-0.5,0.6-1,0.9-1.5c0.6-0.9,1.3-1.7,1.9-2.5
	c0.3-0.4,0.6-0.7,0.8-1.1c0.8-1.2,1.3-2.7,1.1-4.2c-0.2-1.5-1.1-2.8-2.2-3.9c-0.1-0.2-0.3-0.3-0.3-0.5c0-0.2,0.1-0.3,0.3-0.4
	c0.9-0.8,2.1-1,3.2-1.4c1.1-0.4,1.8-1.2,2.1-2.3c0-0.1,0.1-0.3,0-0.4c-0.1-0.1-0.1-0.1-0.2-0.1c-1.3-0.4-2-0.9-1.3-2.4
	c0.9-2.1,2.7-3.6,4.2-5.3c1.6-1.8,2.9-3.9,3.4-6.4c0.2-0.9,0.3-1.8,0.3-2.8c0-6.6-4.8-12.1-11.1-13.2c0.9-1.9,2-3.8,3.3-5.5
	c2-2.8,4.3-5.3,6.9-7.7c3.2-3,6.8-5.6,10.6-8.1c2.9-1.9,5.9-3.7,9-5.4c0.3-0.1,0.6-0.3,0.8-0.5C213.9,16.9,213.9,16.6,213.6,16.4
	L213.6,16.4z"/>
</svg>
